<svg width="63.187500" height="16.320007" viewBox="0 0 63.1875 16.32" fill="none" xmlns="http://www.w3.org/2000/svg" xmlns:xlink="http://www.w3.org/1999/xlink">
	<desc>
			Created with Pixso.
	</desc>
	<defs/>
	<path id="Avion" d="M1.87188 16.08L4.03188 11.352L12.8639 11.352L15.0239 16.08L16.9439 16.08L9.64788 -5.72205e-06L7.27188 -5.72205e-06L-0.000117183 16.08L1.87188 16.08ZM7.48788 3.71999L8.35188 1.63199L8.49588 1.63199L9.38388 3.71999L12.1679 9.81599L4.72788 9.81599L7.48788 3.71999ZM25.0516 16.08L30.7156 4.22399L28.8676 4.22399L24.0916 14.4L23.9476 14.4L19.1476 4.22399L17.2996 4.22399L22.9636 16.08L25.0516 16.08ZM34.102 2.71199L34.102 -5.72205e-06L32.398 -5.72205e-06L32.398 2.71199L34.102 2.71199ZM34.102 16.08L34.102 4.22399L32.398 4.22399L32.398 16.08L34.102 16.08ZM42.7763 16.32C46.6643 16.32 49.2323 13.752 49.2323 10.152C49.2323 6.55199 46.6643 3.98399 42.7763 3.98399C38.9123 3.98399 36.3443 6.55199 36.3443 10.152C36.3443 13.752 38.9123 16.32 42.7763 16.32ZM42.7763 14.784C39.5123 14.784 38.0243 13.032 38.0243 10.152C38.0243 7.29599 39.5123 5.51999 42.7763 5.51999C46.0403 5.51999 47.5523 7.29599 47.5523 10.152C47.5523 13.032 46.0403 14.784 42.7763 14.784ZM53.2036 16.08L53.2036 10.344C53.2036 7.29599 54.7156 5.54399 57.5956 5.54399C60.3076 5.54399 61.4836 6.95999 61.4836 9.40799L61.4836 16.08L63.1876 16.08L63.1876 9.16799C63.1876 6.35999 61.5316 3.98399 58.1956 3.98399C55.2436 3.98399 53.5636 5.92799 53.1556 7.94399L53.0356 7.94399L53.0356 4.22399L51.4996 4.22399L51.4996 16.08L53.2036 16.08Z" fill="#22202E" fill-opacity="1.000000" fill-rule="evenodd"/>
</svg>
