<svg width="24.000000" height="24.000000" viewBox="0 0 24 24" fill="none" xmlns="http://www.w3.org/2000/svg" xmlns:xlink="http://www.w3.org/1999/xlink">
	<desc>
			Created with Pixso.
	</desc>
	<defs>
		<filter id="filter_13_3013_dd" x="0.000000" y="0.000000" width="24.000000" height="24.000000" filterUnits="userSpaceOnUse" color-interpolation-filters="sRGB">
			<feFlood flood-opacity="0" result="BackgroundImageFix"/>
			<feColorMatrix in="SourceAlpha" type="matrix" values="0 0 0 0 0 0 0 0 0 0 0 0 0 0 0 0 0 0 127 0" result="hardAlpha"/>
			<feOffset dx="0" dy="4"/>
			<feGaussianBlur stdDeviation="1.33333"/>
			<feComposite in2="hardAlpha" operator="out" k2="-1" k3="1"/>
			<feColorMatrix type="matrix" values="0 0 0 0 0 0 0 0 0 0 0 0 0 0 0 0 0 0 0.25 0"/>
			<feBlend mode="normal" in2="BackgroundImageFix" result="effect_dropShadow_1"/>
			<feBlend mode="normal" in="SourceGraphic" in2="effect_dropShadow_1" result="shape"/>
		</filter>
		<clipPath id="clip13_3013">
			<rect id="Checkmark--filled" width="16.000000" height="16.000000" transform="translate(4.000000 0.000000)" fill="white" fill-opacity="0"/>
		</clipPath>
	</defs>
	<g filter="url(#filter_13_3013_dd)">
		<rect id="Checkmark--filled" width="16.000000" height="16.000000" transform="translate(4.000000 0.000000)" fill="#FFFFFF" fill-opacity="1.000000"/>
		<g clip-path="url(#clip13_3013)">
			<path id="Vector" d="M12 1C10.6157 1 9.26221 1.41064 8.11084 2.17969C6.95996 2.94897 6.0625 4.04224 5.53271 5.32129C5.00293 6.60034 4.86426 8.00781 5.13428 9.36572C5.40479 10.7234 6.07129 11.9707 7.05029 12.9497C8.0293 13.9287 9.27637 14.5955 10.6343 14.8655C11.9922 15.1355 13.3999 14.9971 14.6787 14.467C15.958 13.9373 17.0513 13.04 17.8203 11.8889C18.5894 10.7378 19 9.38452 19 8C19 6.14355 18.2627 4.36304 16.9497 3.05029C15.6372 1.73755 13.8564 1 12 1ZM11 10.7954L8.5 8.29541L9.29541 7.5L11 9.20459L14.7051 5.5L15.5029 6.29297L11 10.7954Z" fill="#FFFFFF" fill-opacity="1.000000" fill-rule="evenodd"/>
		</g>
	</g>
</svg>
