
<svg xmlns="http://www.w3.org/2000/svg" xmlns:xlink="http://www.w3.org/1999/xlink" width="22.5pt" height="22.5pt" viewBox="0 0 22.5 22.5" version="1.1">
<g id="surface963">
<path style=" stroke:none;fill-rule:nonzero;fill:rgb(100%,100%,100%);fill-opacity:1;" d="M 5.132812 2.933594 C 4.945312 2.933594 4.757812 3.003906 4.613281 3.148438 L 3.148438 4.613281 C 2.863281 4.902344 2.863281 5.367188 3.148438 5.652344 L 8.496094 11 L 3.148438 16.347656 C 2.863281 16.636719 2.863281 17.097656 3.148438 17.386719 L 4.613281 18.851562 C 4.902344 19.136719 5.367188 19.136719 5.652344 18.851562 L 11 13.503906 L 16.347656 18.851562 C 16.632812 19.136719 17.097656 19.136719 17.386719 18.851562 L 18.851562 17.386719 C 19.136719 17.097656 19.136719 16.632812 18.851562 16.347656 L 13.503906 11 L 18.851562 5.652344 C 19.136719 5.367188 19.136719 4.902344 18.851562 4.613281 L 17.386719 3.148438 C 17.097656 2.863281 16.632812 2.863281 16.347656 3.148438 L 11 8.496094 L 5.652344 3.148438 C 5.507812 3.003906 5.320312 2.933594 5.132812 2.933594 Z M 5.132812 2.933594 "/>
</g>
</svg>
