<svg width="24.000000" height="24.000000" viewBox="0 0 24 24" fill="none" xmlns="http://www.w3.org/2000/svg" xmlns:xlink="http://www.w3.org/1999/xlink">
	<desc>
			Created with Pixso.
	</desc>
	<defs>
		<clipPath id="clip7_820">
			<rect id="Sprout" width="24.000000" height="24.000000" fill="white" fill-opacity="0"/>
		</clipPath>
	</defs>
	<rect id="Sprout" width="24.000000" height="24.000000" fill="#FFFFFF" fill-opacity="1.000000"/>
	<g clip-path="url(#clip7_820)">
		<path id="Vector" d="M18.75 1.5C17.0879 1.50275 15.4653 2.00708 14.0942 2.94702C12.7231 3.88702 11.668 5.21881 11.0664 6.76831C10.584 6.06903 9.93945 5.49725 9.1875 5.10217C8.43604 4.70703 7.59912 4.50043 6.75 4.5L4.5 4.5L4.5 6.75C4.50146 8.14191 5.05518 9.47638 6.03955 10.4606C7.02344 11.4448 8.35791 11.9985 9.75 12L10.5 12L10.5 18.787C8.77734 18.9554 7.16699 19.7191 5.94678 20.9465L7.00732 22.0071C7.63477 21.3798 8.39355 20.8995 9.22852 20.6006C10.064 20.3018 10.9551 20.192 11.8384 20.2791C12.7212 20.3661 13.5737 20.6478 14.3345 21.104C15.0957 21.5602 15.7461 22.1794 16.2388 22.9172L17.4849 22.0825C16.8701 21.1638 16.0596 20.3926 15.1108 19.8244C14.1626 19.2562 13.1001 18.9052 12 18.7965L12 12L12.75 12C14.9375 11.9975 17.0342 11.1275 18.5811 9.58087C20.1274 8.03424 20.9976 5.93726 21 3.75L21 1.5L18.75 1.5ZM9.75 10.5C8.75586 10.4988 7.80273 10.1034 7.09961 9.40039C6.39648 8.69739 6.00098 7.7442 6 6.75L6 6L6.75 6C7.74414 6.0011 8.69727 6.39648 9.40039 7.09955C10.1035 7.80255 10.499 8.75574 10.5 9.75L10.5 10.5L9.75 10.5ZM19.5 3.75C19.498 5.53961 18.7861 7.25531 17.521 8.52075C16.2554 9.78619 14.5396 10.498 12.75 10.5L12 10.5L12 9.75C12.002 7.96039 12.7139 6.24469 13.979 4.97925C15.2446 3.71381 16.9604 3.00201 18.75 3L19.5 3L19.5 3.75Z" fill="#2A254B" fill-opacity="1.000000" fill-rule="nonzero"/>
	</g>
</svg>
