<svg width="24.000000" height="24.000000" viewBox="0 0 24 24" fill="none" xmlns="http://www.w3.org/2000/svg" xmlns:xlink="http://www.w3.org/1999/xlink">
	<desc>
			Created with Pixso.
	</desc>
	<defs>
		<clipPath id="clip7_808">
			<rect id="Checkmark--outline" width="24.000000" height="24.000000" fill="white" fill-opacity="0"/>
		</clipPath>
	</defs>
	<rect id="Checkmark--outline" width="24.000000" height="24.000000" fill="#FFFFFF" fill-opacity="1.000000"/>
	<g clip-path="url(#clip7_808)">
		<path id="Vector" d="M6.1665 3.26959C7.89307 2.11584 9.92334 1.5 12 1.5C14.7847 1.5 17.4556 2.60626 19.4248 4.57538C21.3936 6.54449 22.5 9.21521 22.5 12C22.5 14.0767 21.8843 16.1068 20.7305 17.8335C19.5767 19.5602 17.937 20.906 16.0181 21.7007C14.0996 22.4955 11.9883 22.7034 9.95166 22.2982C7.91455 21.8931 6.04395 20.8931 4.5752 19.4246C3.10693 17.9562 2.10693 16.0853 1.70166 14.0485C1.29639 12.0117 1.50439 9.90045 2.29932 7.98181C3.09375 6.06317 4.43994 4.42334 6.1665 3.26959ZM7 19.4832C8.47998 20.4722 10.2202 21 12 21C14.3867 21 16.6763 20.0518 18.3638 18.364C20.0518 16.6761 21 14.387 21 12C21 10.22 20.4722 8.47992 19.4834 6.99988C18.4941 5.51984 17.0889 4.36627 15.4443 3.68506C13.7998 3.00391 11.9902 2.82568 10.2441 3.17291C8.49854 3.5202 6.89453 4.37738 5.63623 5.63605C4.37744 6.89471 3.52002 8.49835 3.17285 10.2442C2.82568 11.99 3.00391 13.7996 3.68506 15.4442C4.36621 17.0887 5.52002 18.4943 7 19.4832ZM6.75 12.3098L10.5 16.0605L17.25 9.31128L16.189 8.25L10.5 13.9395L7.80957 11.25L6.75 12.3098Z" fill="#2A254B" fill-opacity="1.000000" fill-rule="evenodd"/>
	</g>
</svg>
